<?xml version="1.0" encoding="utf-8"?>
<!-- Generator: Adobe Illustrator 21.0.0, SVG Export Plug-In . SVG Version: 6.00 Build 0)  -->
<svg version="1.1" id="Page_1" xmlns="http://www.w3.org/2000/svg" xmlns:xlink="http://www.w3.org/1999/xlink" x="0px" y="0px"
	 viewBox="0 0 1528.7 384.8" style="enable-background:new 0 0 1528.7 384.8;" xml:space="preserve">
<style type="text/css">
	.st0{fill:#6D6E71;}
	.st1{fill-rule:evenodd;clip-rule:evenodd;fill:#358640;}
	.st2{fill-rule:evenodd;clip-rule:evenodd;fill:#6CB545;}
	.st3{fill-rule:evenodd;clip-rule:evenodd;}
	.st4{font-family:'TimesNewRomanPSMT';}
	.st5{font-size:41.419px;}
</style>
<g id="lettering">
	<path d="M520.8,99.3h37.3v13h-21.2c3.9,3.9,6.6,7.4,8.1,10.5c1.9,4.2,2.8,8.7,2.8,13.4c0,7.9-2.2,14.7-6.6,20.5
		c-4.4,5.8-10.3,10.3-17.9,13.6c-7.6,3.3-14.2,4.9-20.1,4.9c-0.4,0-5.2-0.2-14.2-0.6c-3.6,0-6.5,1.2-8.9,3.5
		c-2.4,2.3-3.6,5.1-3.6,8.3c0,2.8,1.1,5.2,3.3,7c2.2,1.8,5.7,2.7,10.6,2.7l20.5-0.2c16.6,0,28,1.8,34.2,5.4
		c8.9,5,13.4,12.8,13.4,23.3c0,6.7-2.1,12.8-6.2,18.3c-4.1,5.5-9.5,9.5-16.2,12.1c-10.2,3.9-21.9,5.8-35.1,5.8c-9.9,0-19-1-27.2-2.9
		c-8.2-1.9-14.1-4.6-17.7-8c-3.5-3.4-5.3-7-5.3-10.8c0-3.6,1.3-6.9,4.1-9.8c2.7-2.9,7.8-5.3,15.2-7.3c-10.3-5-15.4-12.1-15.4-21.1
		c0-5.4,2.1-10.7,6.3-15.8c4.2-5.1,10.8-9.6,19.9-13.4c-10.6-3.9-18.2-9-23-15.3c-4.7-6.3-7.1-13.6-7.1-21.9
		c0-10.8,4.4-20.2,13.3-28.1c8.8-7.9,20.2-11.9,34.1-11.9C505.4,94.7,513,96.2,520.8,99.3L520.8,99.3z M500.4,102
		c-4.6,0-8.4,2.3-11.6,6.9c-3.2,4.6-4.7,14.2-4.7,28.7c0,11.8,1.5,19.8,4.7,24.2c3.1,4.4,6.8,6.6,11,6.6c4.8,0,8.7-2.2,11.8-6.5
		c3.2-4.4,4.8-12.8,4.8-25.3c0-14.1-1.8-23.8-5.3-28.9C508.5,103.9,504.9,102,500.4,102L500.4,102z M493.4,224.9c-8,0-13.4,0.7-16,2
		c-4.5,2.5-6.7,5.8-6.7,9.9c0,4,2.3,7.7,7,10.9c4.6,3.3,13.4,4.9,26.3,4.9c11,0,19.6-1.5,25.9-4.4c6.3-2.9,9.4-7,9.4-12.3
		c0-2-0.6-3.6-1.8-5c-2.1-2.4-5.3-4-9.7-4.9C523.5,225.4,512,224.9,493.4,224.9L493.4,224.9z M623.2,94.7c9.6,0,18.6,2.5,26.9,7.4
		c8.3,5,14.6,12,18.9,21.2c4.3,9.1,6.5,19.1,6.5,30.1c0,15.7-4,28.8-12,39.4c-9.6,12.8-22.9,19.2-39.9,19.2
		c-16.6,0-29.5-5.9-38.5-17.5c-9-11.7-13.5-25.2-13.5-40.6c0-15.9,4.6-29.7,13.8-41.5C594.6,100.6,607.2,94.7,623.2,94.7L623.2,94.7
		z M623.7,103.1c-4,0-7.5,1.5-10.3,4.6c-2.9,3-4.8,9-5.7,18c-0.9,9-1.4,21.4-1.4,37.3c0,8.4,0.6,16.3,1.7,23.7
		c0.9,5.6,2.7,9.9,5.6,12.8c2.8,2.9,6.1,4.4,9.7,4.4c3.6,0,6.5-1,8.9-3c3.1-2.7,5.1-6.5,6.1-11.3c1.6-7.5,2.4-22.6,2.4-45.4
		c0-13.4-0.8-22.6-2.3-27.6c-1.5-5-3.7-8.6-6.6-10.9C629.7,103.9,627,103.1,623.7,103.1L623.7,103.1z M744.4,94.7
		c9.6,0,18.6,2.5,26.9,7.4c8.3,5,14.6,12,18.9,21.2c4.3,9.1,6.5,19.1,6.5,30.1c0,15.7-4,28.8-12,39.4c-9.6,12.8-22.9,19.2-39.9,19.2
		c-16.6,0-29.5-5.9-38.5-17.5c-9-11.7-13.5-25.2-13.5-40.6c0-15.9,4.6-29.7,13.8-41.5C715.8,100.6,728.4,94.7,744.4,94.7L744.4,94.7
		z M744.9,103.1c-4,0-7.5,1.5-10.3,4.6c-2.9,3-4.8,9-5.7,18c-0.9,9-1.4,21.4-1.4,37.3c0,8.4,0.6,16.3,1.7,23.7
		c0.9,5.6,2.7,9.9,5.6,12.8c2.8,2.9,6.1,4.4,9.7,4.4c3.6,0,6.5-1,8.9-3c3.1-2.7,5.1-6.5,6.1-11.3c1.6-7.5,2.4-22.6,2.4-45.4
		c0-13.4-0.8-22.6-2.3-27.6c-1.5-5-3.7-8.6-6.6-10.9C750.8,103.9,748.2,103.1,744.9,103.1L744.9,103.1z M883.3,94.9l1.8,37.7h-4
		c-4.8-11.2-9.8-18.9-15-22.9c-5.2-4.1-10.3-6.2-15.4-6.2c-3.2,0-6,1.1-8.3,3.3c-2.3,2.2-3.4,4.7-3.4,7.5c0,2.1,0.8,4.2,2.4,6.1
		c2.5,3.2,9.6,8.8,21.2,16.6c11.6,7.8,19.2,14.5,22.9,20c3.7,5.5,5.5,11.6,5.5,18.4c0,6.1-1.5,12.2-4.6,18.1
		c-3.1,5.9-7.4,10.5-13,13.6c-5.6,3.2-11.8,4.7-18.6,4.7c-5.3,0-12.4-1.7-21.2-5c-2.3-0.9-4-1.3-4.8-1.3c-2.6,0-4.8,2-6.5,5.9h-3.9
		l-1.9-39.8h4c3.6,10.4,8.4,18.2,14.6,23.4c6.2,5.2,12,7.8,17.6,7.8c3.8,0,6.9-1.2,9.3-3.5c2.4-2.3,3.6-5.2,3.6-8.5
		c0-3.8-1.2-7-3.6-9.8c-2.3-2.7-7.6-6.9-15.8-12.5c-12.1-8.4-19.9-14.8-23.4-19.2c-5.2-6.5-7.8-13.6-7.8-21.4
		c0-8.5,2.9-16.2,8.8-23.1c5.9-6.9,14.4-10.3,25.5-10.3c6,0,11.8,1.5,17.4,4.4c2.1,1.2,3.8,1.8,5.2,1.8c1.5,0,2.6-0.3,3.4-0.9
		c0.9-0.6,2.3-2.3,4.2-5H883.3L883.3,94.9z M1001.4,149.3h-60.7c0.7,14.7,4.6,26.3,11.7,34.8c5.4,6.5,12,9.8,19.6,9.8
		c4.7,0,9-1.3,12.9-4c3.9-2.7,8-7.4,12.4-14.3l4,2.6c-6,12.2-12.6,20.9-19.9,26c-7.2,5.1-15.6,7.6-25.2,7.6
		c-16.4,0-28.8-6.3-37.3-18.9c-6.8-10.2-10.2-22.8-10.2-37.8c0-18.5,5-33.2,15-44.1c10-10.9,21.7-16.4,35.1-16.4
		c11.2,0,20.9,4.6,29.2,13.8C996.4,117.6,1000.8,131.3,1001.4,149.3L1001.4,149.3z M972.3,141.4c0-12.7-0.7-21.4-2.1-26.2
		c-1.4-4.7-3.5-8.3-6.4-10.7c-1.7-1.4-3.9-2.1-6.6-2.1c-4.1,0-7.5,2-10.1,6.1c-4.6,7-7,16.6-7,28.8v4.2H972.3L972.3,141.4z
		 M1060.5,48.1v64c6.1-6.4,11.6-10.9,16.7-13.5c5-2.7,10.3-4,15.8-4c6.9,0,12.9,2,17.8,5.9c4.9,4,8.2,8.6,9.8,13.9
		c1.6,5.3,2.4,14.3,2.4,26.9v43.2c0,8.4,0.8,13.7,2.4,15.8c1.6,2.1,4.8,3.4,9.6,4v4.2h-56.1v-4.2c4-0.6,6.9-2.1,8.9-4.8
		c1.4-2,2.1-7,2.1-15v-49.3c0-9.2-0.4-14.9-1.1-17.2c-0.7-2.3-1.9-4.1-3.6-5.4c-1.7-1.3-3.6-2-5.7-2c-3.1,0-6.2,1.1-9.2,3.3
		c-3,2.1-6.3,6-9.7,11.4v59.3c0,7.9,0.6,12.8,1.8,14.8c1.5,2.7,4.6,4.4,9.3,5v4.2h-56.1v-4.2c4.6-0.5,8-2,9.9-4.5
		c1.3-1.7,2-6.8,2-15.3V72.2c0-8.4-0.8-13.6-2.3-15.6c-1.5-2-4.8-3.4-9.7-4v-4.4H1060.5L1060.5,48.1z M1243.8,149.3h-60.7
		c0.7,14.7,4.6,26.3,11.7,34.8c5.4,6.5,12,9.8,19.6,9.8c4.7,0,9-1.3,12.9-4c3.9-2.7,8-7.4,12.4-14.3l4,2.6
		c-6,12.2-12.6,20.9-19.9,26c-7.2,5.1-15.6,7.6-25.2,7.6c-16.4,0-28.8-6.3-37.3-18.9c-6.8-10.2-10.2-22.8-10.2-37.8
		c0-18.5,5-33.2,15-44.1c10-10.9,21.7-16.4,35.1-16.4c11.2,0,20.9,4.6,29.2,13.8C1238.7,117.6,1243.2,131.3,1243.8,149.3
		L1243.8,149.3z M1214.7,141.4c0-12.7-0.7-21.4-2.1-26.2c-1.4-4.7-3.5-8.3-6.4-10.7c-1.7-1.4-3.9-2.1-6.6-2.1c-4.1,0-7.5,2-10.1,6.1
		c-4.6,7-7,16.6-7,28.8v4.2H1214.7L1214.7,141.4z M1318.7,192.3c-13.5,11.9-25.6,17.9-36.4,17.9c-6.3,0-11.6-2.1-15.7-6.2
		c-4.2-4.1-6.3-9.3-6.3-15.6c0-8.4,3.6-16,10.9-22.8c7.3-6.7,23.1-15.7,47.5-26.9v-11.1c0-8.4-0.4-13.6-1.4-15.8
		c-0.9-2.2-2.6-4.1-5.1-5.7c-2.5-1.6-5.4-2.4-8.5-2.4c-5.1,0-9.4,1.2-12.7,3.4c-2,1.4-3.1,3.1-3.1,5c0,1.7,1.1,3.7,3.3,6.2
		c3,3.4,4.5,6.7,4.5,9.8c0,3.9-1.5,7.2-4.3,9.9c-2.9,2.7-6.7,4.1-11.3,4.1c-5,0-9.1-1.5-12.5-4.5c-3.3-3-5-6.5-5-10.5
		c0-5.7,2.3-11.1,6.7-16.3c4.5-5.2,10.8-9.1,18.8-11.9c8-2.7,16.4-4.1,25.1-4.1c10.5,0,18.8,2.2,24.9,6.7
		c6.1,4.5,10.1,9.3,11.9,14.5c1.1,3.3,1.7,10.9,1.7,22.9v42.9c0,5,0.2,8.2,0.6,9.5c0.4,1.3,1,2.3,1.8,2.9c0.8,0.6,1.7,0.9,2.7,0.9
		c2.1,0,4.2-1.5,6.3-4.4l3.5,2.8c-3.9,5.9-8,10.1-12.2,12.7c-4.2,2.6-9,4-14.4,4c-6.3,0-11.2-1.5-14.8-4.4
		C1321.7,202.8,1319.5,198.3,1318.7,192.3L1318.7,192.3z M1318.7,183.6v-37c-9.5,5.6-16.6,11.6-21.3,18c-3.1,4.3-4.6,8.6-4.6,12.9
		c0,3.6,1.3,6.8,3.9,9.6c2,2.1,4.7,3.2,8.3,3.2C1308.9,190.3,1313.5,188.1,1318.7,183.6L1318.7,183.6z M1486.4,48.1v127.4
		c0,8.6,0.2,13.7,0.7,15.3c0.6,2.6,1.8,4.5,3.6,5.8c1.8,1.2,4.9,2.1,9.3,2.4v3.9l-46.7,9.1v-17.5c-5.6,6.8-10.6,11.4-15,13.9
		c-4.4,2.5-9.3,3.7-14.8,3.7c-14.1,0-25.3-6.3-33.5-18.9c-6.7-10.3-10-22.8-10-37.7c0-11.9,2.1-22.6,6.2-32
		c4.1-9.4,9.7-16.5,16.8-21.4c7.2-4.8,14.8-7.2,23-7.2c5.3,0,10,1,14.1,3.1c4.1,2.1,8.5,5.7,13.1,10.7V75.1c0-8.4-0.4-13.5-1-15.3
		c-1-2.3-2.4-4-4.3-5.1c-1.9-1.1-5.5-1.7-10.7-1.7v-5H1486.4L1486.4,48.1z M1453.3,123.2c-5.9-11.2-13-16.8-21.4-16.8
		c-2.9,0-5.3,0.8-7.2,2.3c-2.9,2.5-5.3,6.7-7.1,12.9c-1.9,6.1-2.8,15.6-2.8,28.3c0,14,1,24.3,3.1,31c2.1,6.7,4.8,11.6,8.4,14.6
		c1.8,1.5,4.3,2.2,7.5,2.2c6.9,0,13.5-5.4,19.6-16.3V123.2L1453.3,123.2z"/>
	<path class="st0" d="M586.8,333v2h-31v-2h2.6c3,0,5.2-0.9,6.5-2.6c0.9-1.1,1.3-3.9,1.3-8.2v-46.8c0-3.7-0.2-6.1-0.7-7.3
		c-0.4-0.9-1.1-1.7-2.2-2.3c-1.6-0.9-3.2-1.3-4.9-1.3h-2.6v-2h31v2h-2.6c-3,0-5.1,0.9-6.5,2.6c-0.9,1.1-1.3,3.9-1.3,8.2v46.8
		c0,3.7,0.2,6.1,0.7,7.3c0.4,0.9,1.1,1.7,2.2,2.3c1.5,0.9,3.2,1.3,4.9,1.3H586.8L586.8,333z M615.3,262.6H635l44.3,54.3v-41.8
		c0-4.4-0.5-7.2-1.5-8.3c-1.3-1.5-3.4-2.2-6.3-2.2H669v-2h25.2v2h-2.6c-3.1,0-5.2,0.9-6.5,2.8c-0.8,1.1-1.2,3.7-1.2,7.8v61H682
		l-47.7-58.3v44.6c0,4.4,0.5,7.2,1.4,8.3c1.3,1.5,3.4,2.2,6.3,2.2h2.6v2h-25.2v-2h2.5c3.1,0,5.3-0.9,6.6-2.8
		c0.8-1.1,1.2-3.7,1.2-7.8v-50.4c-2.1-2.5-3.7-4.1-4.8-4.9c-1.1-0.8-2.7-1.5-4.8-2.2c-1-0.3-2.6-0.5-4.7-0.5V262.6L615.3,262.6z
		 M773.2,260.9v25h-2c-0.7-4.8-1.8-8.6-3.4-11.5c-1.7-2.9-4-5.1-7.1-6.8c-3.1-1.7-6.2-2.5-9.5-2.5c-3.7,0-6.8,1.1-9.2,3.4
		c-2.4,2.3-3.6,4.8-3.6,7.7c0,2.2,0.8,4.2,2.3,6c2.2,2.7,7.5,6.2,15.8,10.7c6.8,3.6,11.4,6.4,13.9,8.4c2.5,1.9,4.4,4.2,5.7,6.9
		c1.3,2.6,2,5.4,2,8.3c0,5.5-2.1,10.2-6.4,14.2c-4.3,4-9.7,6-16.4,6c-2.1,0-4.1-0.2-5.9-0.5c-1.1-0.2-3.4-0.8-6.9-1.9
		c-3.5-1.1-5.7-1.7-6.6-1.7c-0.9,0-1.6,0.3-2.1,0.8c-0.5,0.5-0.9,1.6-1.1,3.3h-2v-24.8h2c0.9,5.2,2.2,9.1,3.8,11.7
		c1.6,2.6,4,4.7,7.2,6.4c3.2,1.7,6.7,2.6,10.6,2.6c4.4,0,8-1.2,10.6-3.5c2.6-2.4,3.9-5.1,3.9-8.3c0-1.8-0.5-3.6-1.5-5.4
		c-1-1.8-2.5-3.5-4.6-5.1c-1.4-1.1-5.2-3.3-11.4-6.8c-6.2-3.5-10.6-6.2-13.2-8.3c-2.6-2.1-4.6-4.4-6-6.8c-1.3-2.5-2-5.2-2-8.2
		c0-5.2,2-9.7,6-13.4c4-3.8,9.1-5.6,15.2-5.6c3.8,0,7.9,0.9,12.2,2.8c2,0.9,3.4,1.3,4.2,1.3c0.9,0,1.7-0.3,2.3-0.8
		c0.6-0.6,1.1-1.7,1.4-3.3H773.2L773.2,260.9z M863.4,264.6v-2h25.6v2h-2.7c-2.8,0-5,1.2-6.6,3.6c-0.7,1.1-1.1,3.7-1.1,7.7v29.4
		c0,7.3-0.7,12.9-2.1,16.9c-1.4,4-4.3,7.5-8.5,10.3c-4.2,2.9-10,4.3-17.2,4.3c-7.9,0-13.9-1.4-18-4.1c-4.1-2.7-7-6.4-8.7-11
		c-1.1-3.2-1.7-9.1-1.7-17.8v-28.3c0-4.4-0.6-7.4-1.8-8.7c-1.2-1.4-3.2-2.1-5.9-2.1h-2.7v-2h31.3v2h-2.8c-3,0-5.1,0.9-6.4,2.8
		c-0.9,1.3-1.3,4-1.3,8v31.6c0,2.8,0.3,6,0.8,9.7c0.5,3.6,1.5,6.5,2.8,8.5c1.3,2,3.3,3.7,5.9,5c2.6,1.3,5.7,2,9.4,2
		c4.7,0,9-1,12.7-3.1c3.7-2.1,6.3-4.7,7.7-7.9c1.4-3.2,2.1-8.7,2.1-16.4v-29.3c0-4.5-0.5-7.3-1.5-8.5c-1.4-1.6-3.5-2.3-6.2-2.3
		H863.4L863.4,264.6z M991.5,335h-19.3l-24.5-33.9c-1.8,0.1-3.3,0.1-4.4,0.1c-0.5,0-0.9,0-1.5,0c-0.5,0-1.1,0-1.7-0.1v21
		c0,4.6,0.5,7.4,1.5,8.5c1.4,1.6,3.4,2.4,6.1,2.4h2.8v2h-31v-2h2.7c3.1,0,5.2-1,6.6-3c0.7-1.1,1.1-3.7,1.1-7.9v-46.8
		c0-4.6-0.5-7.4-1.5-8.5c-1.4-1.6-3.5-2.3-6.2-2.3h-2.7v-2h26.4c7.7,0,13.4,0.6,17,1.7c3.6,1.1,6.7,3.2,9.3,6.2
		c2.5,3,3.8,6.6,3.8,10.8c0,4.4-1.4,8.3-4.4,11.6c-2.9,3.3-7.4,5.6-13.5,6.9l14.9,20.8c3.4,4.8,6.4,7.9,8.8,9.5
		c2.5,1.5,5.7,2.6,9.6,3V335L991.5,335z M940,297.8c0.7,0,1.3,0,1.8,0c0.5,0,0.9,0,1.2,0c6.9,0,12.1-1.5,15.6-4.5
		c3.5-3,5.3-6.8,5.3-11.4c0-4.5-1.4-8.2-4.2-11c-2.8-2.8-6.6-4.2-11.2-4.2c-2.1,0-4.8,0.3-8.4,1V297.8L940,297.8z M1067.9,310.7h-28
		l-4.9,11.4c-1.2,2.8-1.8,4.9-1.8,6.3c0,1.1,0.5,2.1,1.6,2.9c1.1,0.8,3.3,1.4,6.8,1.6v2h-22.8v-2c3-0.5,5-1.2,5.9-2.1
		c1.8-1.7,3.8-5.2,6-10.4l25.5-59.6h1.9l25.2,60.2c2,4.8,3.9,8,5.5,9.4c1.7,1.4,4,2.3,6.9,2.4v2H1067v-2c2.9-0.1,4.8-0.6,5.9-1.5
		c1-0.8,1.5-1.8,1.5-3c0-1.6-0.7-4-2.1-7.4L1067.9,310.7L1067.9,310.7z M1066.4,306.8l-12.3-29.3l-12.6,29.3H1066.4L1066.4,306.8z
		 M1122.7,262.6h19.6l44.3,54.3v-41.8c0-4.4-0.5-7.2-1.5-8.3c-1.3-1.5-3.4-2.2-6.3-2.2h-2.5v-2h25.2v2h-2.6c-3.1,0-5.2,0.9-6.5,2.8
		c-0.8,1.1-1.2,3.7-1.2,7.8v61h-1.9l-47.7-58.3v44.6c0,4.4,0.5,7.2,1.4,8.3c1.4,1.5,3.4,2.2,6.3,2.2h2.6v2h-25.2v-2h2.5
		c3.1,0,5.3-0.9,6.6-2.8c0.8-1.1,1.2-3.7,1.2-7.8v-50.4c-2.1-2.5-3.7-4.1-4.8-4.9c-1.1-0.8-2.7-1.5-4.8-2.2c-1-0.3-2.6-0.5-4.7-0.5
		V262.6L1122.7,262.6z M1296.3,260.9l1.7,24.6h-1.7c-2.2-7.4-5.4-12.7-9.4-15.9c-4.1-3.2-9-4.9-14.7-4.9c-4.8,0-9.2,1.2-13,3.7
		c-3.9,2.4-6.9,6.3-9.1,11.7c-2.2,5.3-3.3,12-3.3,19.9c0,6.5,1,12.2,3.2,17c2.1,4.8,5.2,8.5,9.5,11c4.2,2.6,9,3.8,14.4,3.8
		c4.7,0,8.8-1,12.5-3c3.6-2,7.5-6,11.8-12l1.7,1.1c-3.6,6.5-7.9,11.2-12.7,14.2c-4.8,3-10.6,4.5-17.3,4.5c-12,0-21.3-4.4-27.9-13.4
		c-4.9-6.6-7.4-14.4-7.4-23.4c0-7.2,1.6-13.9,4.8-19.9c3.2-6.1,7.7-10.7,13.4-14.1c5.7-3.3,11.9-5,18.6-5c5.2,0,10.4,1.3,15.5,3.8
		c1.5,0.8,2.6,1.2,3.2,1.2c0.9,0,1.8-0.3,2.5-1c0.9-0.9,1.6-2.3,2-4H1296.3L1296.3,260.9z M1353.6,266.5v28.6h15.9
		c4.1,0,6.9-0.6,8.3-1.9c1.9-1.6,2.9-4.5,3.1-8.7h2v25.2h-2c-0.5-3.5-1-5.8-1.5-6.8c-0.6-1.2-1.7-2.2-3.2-2.9
		c-1.5-0.7-3.7-1.1-6.7-1.1h-15.9v23.9c0,3.2,0.1,5.2,0.4,5.9c0.3,0.7,0.8,1.2,1.5,1.7c0.7,0.4,2.1,0.6,4.1,0.6h12.3
		c4.1,0,7.1-0.3,8.9-0.9c1.9-0.6,3.6-1.7,5.3-3.4c2.2-2.2,4.5-5.5,6.8-10h2.1l-6.2,18.2H1333v-2h2.6c1.7,0,3.3-0.4,4.8-1.2
		c1.2-0.6,1.9-1.4,2.3-2.6c0.4-1.1,0.6-3.5,0.6-7v-47c0-4.6-0.5-7.4-1.4-8.5c-1.3-1.4-3.4-2.1-6.4-2.1h-2.6v-2h55.8l0.8,15.9h-2.1
		c-0.7-3.8-1.6-6.4-2.5-7.8c-0.9-1.4-2.2-2.5-4-3.3c-1.4-0.5-3.9-0.8-7.5-0.8H1353.6L1353.6,266.5z"/>
</g>
<g id="logo">
	<path class="st1" d="M167.7,349.8C68,331.8,42.2,259.4,45.9,205.6c-3.5-0.2-6.7-0.2-8.2-0.2c-6-0.1-12-0.2-18-0.8l-0.6-0.1
		C22.4,270.5,67.1,337.8,167.7,349.8L167.7,349.8z M55,166.3C89.6,88.2,182.9,90.6,224.3,138c1.8,2.1,3.5,4.3,5.2,6.5
		c18.2-11,35.7-27.5,40.1-57.1C161.3-4.6,43.8,68.6,22.7,162.6c-1.3,5.8-2.3,11.7-2.9,17.6c5.9-0.5,12-0.6,17.9-0.8
		c2.1-0.1,7.6-0.1,12.7-0.5C51.8,174.4,53.3,170.1,55,166.3L55,166.3z"/>
	<path class="st2" d="M52.4,206c-6.9,51.2,17.7,116.1,115.3,143.9c-83-36.3-95.3-92.9-88.1-128.9c-4.1-1.6-7.8-3.6-10.5-6.3
		l-10.2-7.3v-0.5C57.3,206.5,55,206.2,52.4,206L52.4,206z M99.6,159.3c29-3.6,53.6,0.7,72.7,11.9c14.3-8.6,27.4-23.4,29.5-36.4
		c-35.1-21-89.1-28.5-127.9,18.8c-5.2,6.3-9.8,14.1-13.5,22.8C73.3,167.2,83.1,161.3,99.6,159.3L99.6,159.3z"/>
	<path class="st3" d="M10.4,194.9c3.5,4.1,26.3,2.9,41.6,4c11,0.8,13.5,4.5,21.7,10.4c9.2,10,43.1,11.2,54.2,9.9l7.1-2.1
		c19.5-11.2,32.3-10,42.4-11l9.7-0.4c69.4,0,143.6,19.4,117.1,65.3c-27.2,47-78.2,78.7-136.4,78.7c-80.5,0-146.8-60.4-156.3-138.3
		C10.9,207.7,10.6,199.7,10.4,194.9L10.4,194.9z M187,179l-9.7-0.4c-10.1-1-22.9,0.1-42.4-11l-7.1-2.1c-11-1.3-45-0.1-54.2,9.9
		c-8,5.7-10.5,9.5-21.2,10.3c-15.3,1.2-38.6-0.1-42.1,4.1c0.2-4.8,0.5-12.8,1-16.6C20.8,95.3,87.2,35,167.7,35
		c58.2,0,109.1,31.7,136.4,78.7c26.8-26.8,15.5-74.7-31.3-96.2c-71-32.6-157.9-19.7-216.4,38.8c-75.1,75.1-75.1,197,0,272.1
		c75.1,75.1,197,75.1,272.1,0c41-41,59.6-95.8,55.9-149.4C294.5,179,301.7,179,187,179L187,179z"/>
</g>
<text transform="matrix(1 0 0 1 1497.197 75.8317)" class="st4 st5">®</text>
</svg>
